<?xml version="1.0" encoding="UTF-8"?><svg xmlns="http://www.w3.org/2000/svg" viewBox="0 0 235.47 274.36"><defs><style>.d{fill:#678d67;}.e{fill:#b3d3b4;}.f{fill:#c1dec1;}.g{fill:#3f6848;}.h{fill:#628164;}.i{fill:#618265;}.j{fill:#769e84;}</style></defs><g id="a"/><g id="b"><g id="c"><path class="d" d="M176.83,45.08c17.74,29.28,30.25,64.76,22.12,99.17-2.76,11.33-7.63,21.83-12.04,32.48-9.27,20.93-18.08,42.86-33.61,60.21-15.36,17.39-35.99,29.57-58,36.25l-.1-.28c21.44-7.65,41.53-20.02,56.33-37.49,14.96-17.43,23.63-39,32.62-59.87,4.43-10.5,9.35-20.88,12.14-31.96,5.51-22.28,1.92-45.82-5.61-67.21-3.8-10.76-8.66-21.13-14.11-31.16l.26-.15h0Z"/><path class="f" d="M181.67,18.59c6.66,14.63,6.5,38.24-3.44,35.89-12.25-2.9-15.18-6.81-27.25-19.6-11.11-11.77-7.47-28.57,3.14-33.39s20.89,2.47,27.54,17.11Z"/><path class="g" d="M217.08,75.41c-9.3,13.11-29.79,24.83-32.75,15.07-3.65-12.05-1.74-16.54,3.25-33.41,4.59-15.52,20.94-20.82,30.45-14.07s8.36,19.3-.95,32.41Z"/><path class="d" d="M185,66.66c9.93,8.79,17.9,26.46,9.75,27.88-10.05,1.76-13.55-.22-26.86-5.91-12.24-5.23-15.31-18.93-9.12-25.92s16.29-4.84,26.22,3.95Z"/><path class="g" d="M169.7,146.43c13.76,7.04,35.25,7.84,32.47-1.88-3.43-11.99-7.18-14.98-19.61-27.19-11.44-11.24-26.5-8.4-30.21,1.69s3.6,20.34,17.36,27.38Z"/><path class="d" d="M209.66,123.28c-8.74,8.79-15.75,26.46-8.58,27.88,8.85,1.76,11.92-.22,23.63-5.91,10.77-5.23,13.47-18.93,8.02-25.92s-14.33-4.84-23.08,3.95Z"/><path class="j" d="M181.36,176.94c-8.93,8.62-14.25,27.78-5.44,30.66,10.88,3.55,14.22,1.8,27.23-2.73,11.97-4.17,12.83-19.49,5.11-28.5s-17.97-8.06-26.9,.57Z"/><path class="h" d="M206.79,217.36c-10.02-7.28-27.32-13.56-26.65-7.93,.84,6.93,3.39,9.45,11.49,18.96,7.45,8.75,20.14,11.44,24.79,7.41s.39-11.16-9.63-18.44Z"/><path class="e" d="M120.23,221.12c.96,12.37,12.08,28.74,19.7,23.82,9.4-6.06,10.15-9.74,14.79-22.62,4.27-11.85-6.72-22.33-18.28-22.19-11.55,.14-17.17,8.61-16.21,20.99Z"/><path class="i" d="M163.94,246.34c-11.6-4.37-30.55-3.64-28.89,3.38,2.06,8.66,5.13,10.65,15.13,18.92,9.2,7.61,22.77,4.59,26.88-3.11s-1.52-14.83-13.12-19.2Z"/><g><path class="d" d="M26.15,162.87c18.21,2.56,37.27,9.4,48.85,24.48,3.83,5.07,6.54,10.67,9.45,16.06,5.57,10.98,11.72,22.1,13.67,34.47,2.03,12.31,.1,25.05-4.6,36.49,3.57-11.32,5.8-24.18,3.37-36.27-2.18-12.16-8.22-23.1-13.87-33.94-2.88-5.42-5.53-11-9.19-15.92-11.2-15.06-30.29-21.66-47.67-25.36h0Z"/><path class="f" d="M16.76,151.85c8.36,2.2,18.14,10.29,13.79,13.63-5.37,4.12-7.99,4.01-17.43,4.7-8.68,.63-14.44-6.59-12.85-12.66s8.13-7.86,16.49-5.67Z"/><path class="g" d="M52.47,156.4c2.3,8.33,.23,20.85-4.85,18.77-6.26-2.57-7.49-4.89-12.82-12.71-4.91-7.19-1.56-15.8,4.48-17.47s10.88,3.07,13.19,11.41Z"/><path class="d" d="M37.92,166.8c7.04-1.15,17.11,1.53,14.93,5.41-2.68,4.79-4.7,5.57-11.59,9.19-6.34,3.32-13.09-.05-13.9-5.01s3.52-8.43,10.56-9.59Z"/><path class="g" d="M65.97,200.28c7.61-3.34,15.25-12.03,10.25-14.17-6.16-2.64-8.68-2.1-18-1.07-8.57,.95-12.51,8.19-9.56,13.17s9.7,5.41,17.31,2.07Z"/><path class="d" d="M69.9,175.76c.69,6.63,5.67,15.55,8.7,13.05,3.74-3.09,3.96-5.05,5.57-11.86,1.48-6.27-3.31-12.05-8.08-12.15s-6.89,4.33-6.19,10.96Z"/><path class="j" d="M82.65,205.79c.56,6.65,6.73,15.38,10.93,12.68,5.18-3.33,5.58-5.31,8.12-12.27,2.33-6.41-3.76-11.97-10.14-11.81s-9.46,4.75-8.9,11.4Z"/><path class="h" d="M108.13,208.92c-6.44,1.7-14.93,6.78-12.36,8.41,3.17,2.01,5.09,1.8,11.81,1.65,6.18-.13,11.61-4.5,11.51-7.81s-4.52-3.95-10.96-2.25Z"/><path class="e" d="M80.29,246.28c5.48,3.8,16.08,4.73,16.62-.11,.67-5.98-.61-7.54-4.4-13.85-3.49-5.81-11.59-4.79-15.46,.08s-2.25,10.08,3.24,13.89Z"/><path class="i" d="M105.65,236.63c-5.76,3.35-11.9,11.5-8.41,13.19,4.31,2.09,6.18,1.48,13.03,.12,6.3-1.25,9.65-7.93,7.84-12.26s-6.7-4.4-12.46-1.05Z"/></g></g></g></svg>