<?xml version="1.0" encoding="UTF-8"?><svg xmlns="http://www.w3.org/2000/svg" viewBox="0 0 2192.79 1195.03"><defs><style>.d{fill:#6a7e64;}.e{fill:#697f65;}.f{fill:#7f9a83;}.g{fill:#b9cfb3;}.h{fill:#c7dac0;}.i{fill:#718867;}.j{fill:#4a6548;}</style></defs><g id="a"/><g id="b"><g id="c"><g><path class="i" d="M273.71,613.45c-6.37-5.09-19.7-14.88-25.42-20.12-5-4.44-11.47-9.89-16.28-14.28-4.89-4.75-12.78-12.17-17.53-16.99-3.22-3.36-9.68-10.41-12.95-13.94-3.99-4.5-10.03-12-13.98-16.71-4.32-5.68-8.88-11.7-13-17.54-2.11-3.28-6.97-10.63-8.98-13.74-1.72-2.97-6.49-11.05-8.28-14.21-2.53-4.58-5.09-9.97-7.55-14.65-10.14-21.61-17.74-44.64-21.33-68.33-4.24-28.85-2.6-58.24-2.29-87.16,1.36-52.37,1.75-105.74,16.49-156.5,17.59-61.31,57.06-115.18,106.33-154.88l.5,.56c-10.67,9.61-20.93,19.68-30.56,30.32-19.2,21.33-35.84,45.01-48.92,70.57-26.96,51.48-33.81,109.66-35.26,166.99-.79,28.71-1.5,57.48-1.76,86.19-.34,28.71,3.07,57.47,12.55,84.66,13.97,40.81,37.98,77.54,66.4,109.77,19,21.53,40.11,41.14,62.28,59.39l-.47,.59h0Z"/><path class="h" d="M287.4,679.82c-29.32-27.87-51.19-83.09-25.8-86.96,31.32-4.78,41.82,1.58,82.04,20.05,37,17,44.35,59.61,24.15,80.87-20.21,21.26-51.06,13.91-80.39-13.96Z"/><path class="j" d="M151.23,580.64c9.35-39.36,46.1-86.01,62.21-66.01,19.87,24.68,19.66,36.95,23.9,81,3.9,40.53-29.24,68.3-57.77,61.52-28.54-6.78-37.69-37.15-28.34-76.51Z"/><path class="i" d="M234.32,570.8c-31.46-11.15-66.69-44.85-49.02-55.85,21.8-13.57,31.83-12.25,68.23-11.53,33.49,.67,53.55,29.73,45.7,51.89s-33.45,26.64-64.91,15.49Z"/><path class="j" d="M194.85,370.29c-38.74-3.47-89.63,14.92-73.98,34.97,19.31,24.74,30.87,28.18,71.39,44.96,37.28,15.44,69.75-5.38,68.9-32.41-.84-27.03-27.57-44.06-66.31-47.52Z"/><path class="i" d="M123.42,461.95c12.11-28.75,11.82-76.56-6.25-73.13-22.29,4.24-27.61,11.76-49.57,36.05-20.2,22.35-13.59,56.85,5.71,68.04,19.31,11.19,38-2.22,50.11-30.97Z"/><path class="f" d="M138.89,310.09c12.71-28.53,7.08-78.24-16.21-76.66-28.73,1.96-34.87,9.19-60.96,32.02-24.01,21.01-11.57,57.57,14.94,71.31,26.51,13.74,49.52,1.86,62.23-26.68Z"/><path class="d" d="M41.46,239.76c30.24,7.55,76.52,5.88,69.64-6.6-8.48-15.39-16.81-18.86-44.67-33.41-25.63-13.38-57.76-7.72-64.82,6.07-7.06,13.79,9.61,26.39,39.85,33.94Z"/><path class="g" d="M239.86,149.4c-13.91-27.96-55.26-55.66-68.41-37.02-16.22,23-14.5,32.29-13.19,66.72,1.2,31.67,36.74,45.77,63.56,34.54,26.82-11.22,31.95-36.28,18.05-64.25Z"/><path class="e" d="M114.14,131.76c31.18-.74,74.72-20.3,64.21-35.11-12.96-18.27-22-20-53.13-29.88-28.65-9.09-57.44,10.76-59.79,32.58-2.34,21.82,17.53,33.17,48.71,32.42Z"/><g><path class="i" d="M514.26,196.66c-33.9,8.53-70.03,11.42-104.23,2.59-11.45-3.03-22.63-7.54-32.87-13.57-6.88-4.05-13.17-8.86-19.25-13.74-12.07-9.88-23.71-19.87-35.43-30.12-17.58-15.45-34.65-32.02-46.79-52.33C259.35,62.68,251.85,31.14,252.02,.02l.41-.02c1.01,23.12,5.67,46.19,15.03,67.41,15.3,36.09,45.92,61.85,75.22,86.51,11.8,9.92,23.25,20.44,36.45,28.48,26.6,16.04,58.46,20.82,89.12,19.63,15.43-.6,30.77-2.74,45.92-5.77l.08,.4h0Z"/><path class="h" d="M546.57,213.51c-21.58,2.75-52.02-6.9-45.01-18.8,8.65-14.68,14.87-16.89,36.24-27.38,19.66-9.65,39.91,1.77,41.91,17.42,1.99,15.65-11.55,26.01-33.13,28.76Z"/><path class="j" d="M458.96,236.56c-13.22-17.27-20.18-48.44-6.37-48.36,17.04,.1,22.08,4.36,41.88,17.56,18.22,12.15,18.53,35.4,6.01,44.98s-28.29,3.08-41.52-14.19Z"/><path class="i" d="M483.1,198.58c-15.34,9.32-41.36,12.55-39.94,1.45,1.75-13.7,5.71-17.43,18.38-32.35,11.66-13.73,30.59-12.22,37.16-1.41s-.26,22.99-15.6,32.32Z"/><path class="j" d="M386.12,146.89c-14.61,14.97-24.24,42.42-10.56,42.71,16.87,.36,22.24-3.29,43-14.47,19.1-10.29,21.46-30.9,9.91-39.73-11.55-8.83-27.73-3.48-42.34,11.49Z"/><path class="i" d="M400.05,207.81c-7.86-14.82-27.89-30.94-32.6-22.24-5.81,10.73-4.48,15.5-1.82,32.91,2.45,16.02,19.07,24.98,30.3,20.74,11.22-4.24,11.99-16.59,4.12-31.41Z"/><path class="f" d="M342.01,149.76c-7.57-14.99-30.2-29.54-37.45-19.29-8.95,12.64-8.02,17.65-7.37,36.29,.6,17.14,20.06,24.38,34.8,18.01,14.74-6.38,17.6-20.01,10.03-35Z"/><path class="d" d="M279.59,166.47c13.42-10.04,28.45-29.89,20.92-31.27-9.3-1.69-13.58,.6-29.1,7.27-14.29,6.13-22.85,21.45-19.5,29.08,3.35,7.63,14.27,4.96,27.69-5.07Z"/><path class="g" d="M309.35,53.07c-16.38-3.71-41.98,4.12-38.68,15.93,4.07,14.58,8.53,17.02,23.32,28.17,13.61,10.26,31.56,.24,35.99-14.75,4.44-14.99-4.26-25.65-20.64-29.35Z"/><path class="e" d="M259.28,99.48c10.29-13.25,16.93-38.04,7.18-38.69-12.02-.81-15.81,2.37-30.51,11.99-13.52,8.85-15.04,27.6-6.74,35.99,8.3,8.39,19.78,3.96,30.07-9.28Z"/></g></g><g><path class="i" d="M2081.89,641.94c16.89,88.96,13.82,188.3-38.17,265.83-17.32,25.24-39.54,46.73-60.41,68.79-42.34,43.41-84.94,88.96-139.45,117.27-37.19,19.78-78.67,30.83-120.49,34.62-18.75,1.58-38.07,1.68-56.81,.46l.02-.79c15.08,.21,30.16-.24,45.18-1.56,30.01-2.74,59.73-9.12,88.04-19.48,57.49-20.44,104.28-60.4,146.28-103.53,21.09-21.56,42.16-43.22,62.83-65.17,20.72-21.89,38.68-46.45,50.72-74.19,18.4-41.39,26.16-86.84,27.24-131.94,.79-30.16-1.59-60.33-5.76-90.19l.78-.11h0Z"/><path class="h" d="M2118.68,581.04c2.72,42.39-19.82,100.54-42.15,85.42-27.55-18.66-31.1-31.05-48.92-73.97-16.39-39.49,8.34-77.57,39.07-79.54,30.74-1.97,49.27,25.7,51.99,68.09Z"/><path class="j" d="M2152.87,754.6c-35.28,23.66-96.88,33.4-95.03,6.49,2.29-33.19,11.21-42.49,39.36-79.47,25.9-34.02,71.25-31.78,88.4-6.2,17.15,25.58,2.54,55.51-32.74,79.17Z"/><path class="i" d="M2081.82,702.91c16.29,31.03,19.4,82.13-2.06,78.01-26.48-5.09-33.26-13.26-60.8-39.78-25.33-24.4-20.06-61.11,1.79-72.58,21.86-11.48,44.77,3.33,61.07,34.36Z"/><path class="j" d="M1969.21,885.57c27.38,30.3,79.71,52.43,81.95,25.82,2.76-32.84-3.68-43.74-22.94-85.57-17.71-38.48-57.59-45.6-76.21-24.17-18.63,21.43-10.18,53.62,17.2,83.92Z"/><path class="i" d="M2089.64,865.89c-29.84,13.51-63.72,50.57-47.34,60.81,20.2,12.63,29.66,10.63,63.92,7.58,31.51-2.81,51.03-34.11,44.13-56.51-6.89-22.39-30.87-25.39-60.71-11.88Z"/><path class="f" d="M1969.4,971.88c-30.15,12.92-61.26,55.24-42.19,70.63,23.54,18.98,33.42,17.79,69.81,18.81,33.48,.94,49.98-36.11,39.35-65.61-10.62-29.5-36.83-36.75-66.98-23.83Z"/><path class="d" d="M1994.31,1095.57c-17.91-27.39-54.77-59.11-58.37-44.59-4.44,17.91-.5,26.53,10.59,57.61,10.21,28.59,39.01,47.15,54.28,41.56,15.27-5.59,11.42-27.19-6.5-54.58Z"/><path class="g" d="M1776.97,1023.68c-9.23,31.47,2.88,82.31,26.31,77.32,28.91-6.15,34.21-14.54,57.76-42,21.66-25.27,4.34-61.47-24.34-71.95-28.67-10.48-50.5,5.17-59.73,36.63Z"/><path class="e" d="M1861.27,1126.96c-24.56-21.67-72.06-37.65-74.52-18.74-3.04,23.33,2.68,31.11,19.63,60.93,15.59,27.44,51.94,32.69,69.31,17.54,17.37-15.14,10.15-38.06-14.41-59.73Z"/><g><path class="i" d="M1599.24,791.54c3.96,2.34,12.19,6.77,15.8,9.25,3.16,2.03,7.18,4.67,10.23,6.7,2.5,1.8,7.43,5.39,9.92,7.19,20.96,16.32,40.01,36.23,52.44,59.99,3.8,7.39,7.03,15.11,9.43,23.12,4.66,15.91,6.03,32.31,8.14,48.55,6.48,51.64,10.62,96.56-15.46,144.2-7.91,14.38-17.57,27.69-28.68,39.57l-.32-.28c5.21-6.21,10.15-12.65,14.7-19.36,13.55-20.14,23.62-42.85,27.96-66.79,6.02-32.07,1.36-64.77-2.42-96.84-2.02-16.06-3.33-32.34-7.78-47.95-9.06-31.33-30.2-57.74-54.67-78.69-12.32-10.54-25.67-19.84-39.5-28.3l.22-.37h0Z"/><path class="h" d="M1586.36,755.51c18.59,13.27,35.17,42.43,21.28,46.59-17.14,5.14-23.51,2.41-47.45-4.75-22.03-6.59-29.5-29.83-19.87-43.31,9.62-13.48,27.46-11.8,46.05,1.47Z"/><path class="j" d="M1670.31,800.24c-2.13,22.74-19,51.72-29.58,41.81-13.06-12.23-13.9-19.11-19.74-43.41-5.38-22.35,10.97-40.49,27.46-38.95,16.49,1.54,24,17.8,21.87,40.55Z"/><path class="i" d="M1624.62,812.29c18.47,3.75,40.82,19.83,31.81,27.37-11.12,9.3-16.83,9.36-37.24,11.82-18.78,2.27-32.29-12.4-29.64-25.41,2.64-13.01,16.6-17.53,35.07-13.77Z"/><path class="j" d="M1662.48,921.29c21.93-1.11,48.94-15.4,38.61-25.38-12.75-12.31-19.48-13.33-43.46-19.52-22.06-5.69-38.57,8.5-35.97,23.55,2.6,15.05,18.89,22.46,40.82,21.35Z"/><path class="i" d="M1695.2,864.42c-4.51,17.03-.58,43.74,9.26,40.4,12.13-4.13,14.51-8.75,24.88-24.06,9.54-14.09,3.12-32.86-8.55-37.59-11.68-4.74-21.07,4.24-25.58,21.26Z"/><path class="f" d="M1698.52,950.54c-4.86,16.96,2.21,44.31,15.1,41.58,15.91-3.36,18.77-7.88,31.56-22.7,11.77-13.64,1.93-33.1-13.97-38.7-15.9-5.6-27.83,2.86-32.69,19.82Z"/><path class="d" d="M1758.53,982.19c-17.5-1.84-43.25,2.74-38.42,9.18,5.96,7.94,10.89,9.22,27.61,15.16,15.38,5.46,32.91-.23,35.77-8.5,2.86-8.26-7.45-14-24.95-15.84Z"/><path class="g" d="M1654.72,1048.34c9.98,14.54,35.28,26.77,41.17,15.31,7.26-14.14,5.56-19.2,2.12-38.34-3.17-17.62-24.15-22.7-38.26-14.31-14.11,8.39-15.01,22.8-5.03,37.34Z"/><path class="e" d="M1726.4,1048.3c-17.38,2.87-40.18,17.24-33.13,24.69,8.69,9.2,13.87,9.45,32.06,12.52,16.73,2.83,31.27-10.54,30.86-22.92-.41-12.39-12.41-17.16-29.79-14.29Z"/></g></g></g></g></svg>